# xmcd CD database file
#
# Track frame offsets:
#	150
#	19830
#	37377
#	58732
#	78882
#	101865
#	122862
#	141330
#
# Disc length: 1969 seconds
#
# Revision: 0
# Processed by: cddbd v1.5.2PL0 Copyright (c) Steve Scherf et al.
# Submitted via: CDex 1.70beta2
#
DISCID=7407af08
DTITLE=Tex Quarteto - Chegada
DYEAR=2005
DGENRE=Jazz
TTITLE0=Chegada
TTITLE1=Por Si Só
TTITLE2=Amanheceu
TTITLE3=Meu Partido
TTITLE4=Groove for God
TTITLE5=Prato Principal
TTITLE6=Tema Para Edu
TTITLE7=Serenando
EXTD=YEAR: 2005
EXTT0=
EXTT1=
EXTT2=
EXTT3=
EXTT4=
EXTT5=
EXTT6=
EXTT7=
PLAYORDER=
